<svg width="1249" height="900" viewBox="0 0 1249 900" fill="none" xmlns="http://www.w3.org/2000/svg">
<mask id="mask0" mask-type="alpha" maskUnits="userSpaceOnUse" x="-2" y="-339" width="1915" height="1858">
<path d="M1033.79 -337L-4.6105e-05 607.86" stroke="#79B6BF" stroke-width="3" stroke-miterlimit="10"/>
<path d="M1050.65 -319.521L16.8654 625.339" stroke="#79B6BF" stroke-width="3" stroke-miterlimit="10"/>
<path d="M1067.53 -302.031L33.7401 642.828" stroke="#79B6BF" stroke-width="3" stroke-miterlimit="10"/>
<path d="M1084.39 -284.553L50.6057 660.307" stroke="#79B6BF" stroke-width="3" stroke-miterlimit="10"/>
<path d="M1101.27 -267.063L67.4805 677.797" stroke="#79B6BF" stroke-width="3" stroke-miterlimit="10"/>
<path d="M1118.13 -249.584L84.346 695.276" stroke="#79B6BF" stroke-width="3" stroke-miterlimit="10"/>
<path d="M1135.01 -232.095L101.221 712.765" stroke="#79B6BF" stroke-width="3" stroke-miterlimit="10"/>
<path d="M1151.87 -214.616L118.086 730.244" stroke="#79B6BF" stroke-width="3" stroke-miterlimit="10"/>
<path d="M1168.74 -197.136L134.952 747.724" stroke="#79B6BF" stroke-width="3" stroke-miterlimit="10"/>
<path d="M1185.61 -179.647L151.827 765.213" stroke="#79B6BF" stroke-width="3" stroke-miterlimit="10"/>
<path d="M1202.48 -162.168L168.692 782.692" stroke="#79B6BF" stroke-width="3" stroke-miterlimit="10"/>
<path d="M1219.36 -144.678L185.567 800.181" stroke="#79B6BF" stroke-width="3" stroke-miterlimit="10"/>
<path d="M1236.22 -127.199L202.433 817.661" stroke="#79B6BF" stroke-width="3" stroke-miterlimit="10"/>
<path d="M1253.1 -109.71L219.307 835.15" stroke="#79B6BF" stroke-width="3" stroke-miterlimit="10"/>
<path d="M1253.1 -109.71L219.307 835.15" stroke="#79B6BF" stroke-width="3" stroke-miterlimit="10"/>
<path d="M1269.96 -92.2307L236.173 852.629" stroke="#79B6BF" stroke-width="3" stroke-miterlimit="10"/>
<path d="M1286.83 -74.7511L253.039 870.109" stroke="#79B6BF" stroke-width="3" stroke-miterlimit="10"/>
<path d="M1303.7 -57.2628L269.914 887.597" stroke="#79B6BF" stroke-width="3" stroke-miterlimit="10"/>
<path d="M1320.57 -39.7834L286.779 905.076" stroke="#79B6BF" stroke-width="3" stroke-miterlimit="10"/>
<path d="M1337.44 -22.2942L303.654 922.566" stroke="#79B6BF" stroke-width="3" stroke-miterlimit="10"/>
<path d="M1354.31 -4.81506L320.519 940.045" stroke="#79B6BF" stroke-width="3" stroke-miterlimit="10"/>
<path d="M1371.18 12.6743L337.394 957.534" stroke="#79B6BF" stroke-width="3" stroke-miterlimit="10"/>
<path d="M1388.05 30.1536L354.26 975.013" stroke="#79B6BF" stroke-width="3" stroke-miterlimit="10"/>
<path d="M1404.91 47.6333L371.125 992.493" stroke="#79B6BF" stroke-width="3" stroke-miterlimit="10"/>
<path d="M1421.79 65.1222L388 1009.98" stroke="#79B6BF" stroke-width="3" stroke-miterlimit="10"/>
<path d="M1438.65 82.6013L404.866 1027.46" stroke="#79B6BF" stroke-width="3" stroke-miterlimit="10"/>
<path d="M1455.53 100.091L421.74 1044.95" stroke="#79B6BF" stroke-width="3" stroke-miterlimit="10"/>
<path d="M1472.39 117.57L438.606 1062.43" stroke="#79B6BF" stroke-width="3" stroke-miterlimit="10"/>
<path d="M1472.39 117.57L438.606 1062.43" stroke="#79B6BF" stroke-width="3" stroke-miterlimit="10"/>
<path d="M1489.26 135.05L455.471 1079.91" stroke="#79B6BF" stroke-width="3" stroke-miterlimit="10"/>
<path d="M1506.13 152.538L472.346 1097.4" stroke="#79B6BF" stroke-width="3" stroke-miterlimit="10"/>
<path d="M1523 170.018L489.212 1114.88" stroke="#79B6BF" stroke-width="3" stroke-miterlimit="10"/>
<path d="M1539.87 187.506L506.087 1132.37" stroke="#79B6BF" stroke-width="3" stroke-miterlimit="10"/>
<path d="M1556.74 204.986L522.952 1149.85" stroke="#79B6BF" stroke-width="3" stroke-miterlimit="10"/>
<path d="M1573.62 222.475L539.827 1167.33" stroke="#79B6BF" stroke-width="3" stroke-miterlimit="10"/>
<path d="M1590.48 239.955L556.692 1184.81" stroke="#79B6BF" stroke-width="3" stroke-miterlimit="10"/>
<path d="M1607.35 257.434L573.558 1202.29" stroke="#79B6BF" stroke-width="3" stroke-miterlimit="10"/>
<path d="M1624.22 274.923L590.433 1219.78" stroke="#79B6BF" stroke-width="3" stroke-miterlimit="10"/>
<path d="M1641.09 292.402L607.299 1237.26" stroke="#79B6BF" stroke-width="3" stroke-miterlimit="10"/>
<path d="M1657.96 309.891L624.173 1254.75" stroke="#79B6BF" stroke-width="3" stroke-miterlimit="10"/>
<path d="M1674.83 327.371L641.039 1272.23" stroke="#79B6BF" stroke-width="3" stroke-miterlimit="10"/>
<path d="M1691.7 344.86L657.914 1289.72" stroke="#79B6BF" stroke-width="3" stroke-miterlimit="10"/>
<path d="M1691.7 344.86L657.914 1289.72" stroke="#79B6BF" stroke-width="3" stroke-miterlimit="10"/>
<path d="M1708.57 362.34L674.779 1307.2" stroke="#79B6BF" stroke-width="3" stroke-miterlimit="10"/>
<path d="M1725.43 379.818L691.645 1324.68" stroke="#79B6BF" stroke-width="3" stroke-miterlimit="10"/>
<path d="M1742.31 397.308L708.519 1342.17" stroke="#79B6BF" stroke-width="3" stroke-miterlimit="10"/>
<path d="M1759.17 414.787L725.385 1359.65" stroke="#79B6BF" stroke-width="3" stroke-miterlimit="10"/>
<path d="M1776.05 432.276L742.26 1377.14" stroke="#79B6BF" stroke-width="3" stroke-miterlimit="10"/>
<path d="M1792.91 449.755L759.126 1394.62" stroke="#79B6BF" stroke-width="3" stroke-miterlimit="10"/>
<path d="M1809.79 467.244L776 1412.1" stroke="#79B6BF" stroke-width="3" stroke-miterlimit="10"/>
<path d="M1826.65 484.724L792.866 1429.58" stroke="#79B6BF" stroke-width="3" stroke-miterlimit="10"/>
<path d="M1843.52 502.203L809.731 1447.06" stroke="#79B6BF" stroke-width="3" stroke-miterlimit="10"/>
<path d="M1860.39 519.692L826.606 1464.55" stroke="#79B6BF" stroke-width="3" stroke-miterlimit="10"/>
<path d="M1877.26 537.172L843.472 1482.03" stroke="#79B6BF" stroke-width="3" stroke-miterlimit="10"/>
<path d="M1894.13 554.661L860.346 1499.52" stroke="#79B6BF" stroke-width="3" stroke-miterlimit="10"/>
<path d="M1911 572.14L877.212 1517" stroke="#79B6BF" stroke-width="3" stroke-miterlimit="10"/>
</mask>
<g mask="url(#mask0)">
<path d="M671.19 490.651C430.283 551.745 351.677 792.679 342.487 905.509H1311.63V-25.3408H1072C1063.51 214.079 972.325 414.284 671.19 490.651Z" fill="#79B6BF"/>
</g>
</svg>
